<svg width="65" height="29" viewBox="0 0 65 29" fill="none" xmlns="http://www.w3.org/2000/svg">
<path fill-rule="evenodd" clip-rule="evenodd" d="M0.83486 22.5477C0.889025 22.3887 0.920866 22.2518 0.905578 22.2435C0.890326 22.2352 0.914372 22.1351 0.959027 22.0212C1.00368 21.9072 1.02822 21.8075 1.01354 21.7995C0.998847 21.7915 1.02947 21.6799 1.08156 21.5514C1.13361 21.4229 1.16764 21.3026 1.15707 21.284C1.14655 21.2654 1.21414 21.0603 1.30728 20.8282C1.40043 20.596 1.46526 20.3999 1.45138 20.3924C1.43751 20.3849 1.4926 20.2297 1.57385 20.0477C1.65509 19.8657 1.7093 19.7101 1.69437 19.7019C1.6794 19.6938 1.7656 19.4785 1.88598 19.2235C2.01595 18.948 2.0942 18.7408 2.07878 18.713C2.04182 18.6466 3.79713 15.4174 3.8729 15.4123C3.90523 15.4102 4.0405 15.2228 4.21565 14.9377C4.37477 14.6786 4.51806 14.4737 4.53402 14.4824C4.55001 14.4911 4.65192 14.3614 4.76049 14.1942C4.86907 14.0271 4.96967 13.8967 4.984 13.9045C4.99837 13.9123 5.1258 13.7554 5.26722 13.5558C5.40861 13.3561 5.53533 13.1988 5.54882 13.2062C5.5623 13.2135 5.63589 13.1301 5.71234 13.0209C5.78881 12.9116 5.86491 12.8296 5.88143 12.8386C5.89799 12.8476 5.97437 12.7657 6.05116 12.6567C6.12796 12.5476 6.20232 12.4647 6.21641 12.4723C6.23046 12.48 6.33254 12.3709 6.44317 12.23C6.5538 12.0891 6.65686 11.9806 6.67219 11.9889C6.68751 11.9973 6.75374 11.9304 6.81932 11.8404C6.88493 11.7504 6.95106 11.6835 6.96628 11.6918C6.98149 11.7001 7.03917 11.6492 7.09448 11.5787C7.1498 11.5083 7.20772 11.4575 7.22325 11.4659C7.23875 11.4744 7.327 11.3887 7.41938 11.2755C7.51176 11.1624 7.60068 11.077 7.61702 11.0859C7.63337 11.0948 7.68736 11.0522 7.73702 10.9912C7.78668 10.9302 7.83965 10.8871 7.85476 10.8953C7.86987 10.9035 7.92284 10.8603 7.9725 10.7993C8.02215 10.7384 8.07477 10.695 8.08942 10.7029C8.10407 10.7109 8.18755 10.6329 8.27486 10.5296C8.36222 10.4263 8.44717 10.3491 8.46366 10.358C8.48015 10.367 8.53429 10.3244 8.58394 10.2635C8.6336 10.2025 8.68812 10.1601 8.70514 10.1694C8.72212 10.1786 8.7724 10.1443 8.81682 10.093C8.86124 10.0418 8.90922 10.0062 8.92342 10.0139C8.93765 10.0216 9.01277 9.95962 9.09036 9.87613C9.16798 9.79265 9.24561 9.73203 9.26284 9.7414C9.28011 9.75078 9.32576 9.72419 9.3643 9.68231C9.40285 9.64043 9.44857 9.61387 9.46587 9.62327C9.4832 9.6327 9.51832 9.60184 9.54393 9.55471C9.56953 9.50762 9.6251 9.45882 9.66741 9.44636C9.70974 9.43386 9.80004 9.36838 9.86809 9.30082C9.93616 9.23331 10.004 9.18463 10.0188 9.19267C10.0336 9.20071 10.082 9.16537 10.1265 9.11412C10.1709 9.06286 10.2201 9.02794 10.2359 9.03652C10.2517 9.0451 10.2961 9.01785 10.3347 8.97597C10.3732 8.93409 10.4191 8.90763 10.4366 8.91715C10.4542 8.92669 10.5202 8.88603 10.5833 8.82677C10.6464 8.76751 10.7311 8.70927 10.7716 8.69734C10.812 8.6854 10.8574 8.65296 10.8724 8.62527C10.8875 8.59754 10.914 8.58256 10.9313 8.59198C10.9486 8.60139 10.9943 8.57483 11.0329 8.53295C11.0714 8.49107 11.1173 8.46461 11.1348 8.47413C11.1524 8.48366 11.2153 8.4459 11.2746 8.39018C11.334 8.33446 11.3955 8.29591 11.4113 8.30451C11.4271 8.31311 11.4716 8.28588 11.5101 8.24399C11.5487 8.20212 11.5958 8.17633 11.6148 8.18667C11.6339 8.19703 11.6618 8.18281 11.6769 8.15509C11.6919 8.1274 11.7365 8.09505 11.7759 8.08325C11.8153 8.07149 11.8983 8.02263 11.9604 7.97469C12.0225 7.92677 12.0853 7.89405 12.1 7.90203C12.1147 7.91002 12.1399 7.89224 12.156 7.86254C12.1722 7.8328 12.2142 7.81232 12.2494 7.817C12.2846 7.82165 12.325 7.80417 12.3392 7.7781C12.3533 7.75203 12.3926 7.72933 12.4265 7.72763C12.4603 7.72592 12.5402 7.68091 12.6039 7.62759C12.6677 7.57427 12.7475 7.52926 12.7814 7.52756C12.8152 7.52585 12.8545 7.50315 12.8687 7.47708C12.8829 7.45102 12.9232 7.43353 12.9584 7.43818C12.9936 7.44287 13.0356 7.42238 13.0518 7.39264C13.0679 7.36294 13.0951 7.34622 13.1122 7.35551C13.1292 7.36478 13.1888 7.33548 13.2446 7.29039C13.3003 7.24529 13.3604 7.21627 13.3781 7.22589C13.3958 7.23548 13.436 7.22131 13.4674 7.19444C13.4988 7.16751 13.5462 7.13674 13.5727 7.12599C13.5991 7.11525 13.6861 7.08025 13.7658 7.04821C13.8456 7.01618 13.9185 6.97594 13.9279 6.95878C13.9373 6.9416 14 6.91355 14.0673 6.89645C14.1346 6.87931 14.2151 6.84359 14.2462 6.81708C14.2773 6.79057 14.3174 6.77683 14.3353 6.78656C14.3533 6.79631 14.3991 6.7704 14.4372 6.72901C14.4753 6.68764 14.5472 6.65403 14.5971 6.65439C14.6469 6.65469 14.6967 6.63846 14.7077 6.61825C14.7186 6.59804 14.8012 6.55978 14.8911 6.53325C14.981 6.50671 15.0618 6.47156 15.0707 6.45516C15.0797 6.43875 15.1605 6.4036 15.2504 6.37706C15.3403 6.35053 15.42 6.31756 15.4274 6.30381C15.4349 6.29005 15.5221 6.25742 15.6211 6.23132C15.7202 6.20521 15.8289 6.15721 15.8628 6.1247C15.8967 6.09217 15.973 6.0659 16.0325 6.06629C16.092 6.06669 16.1849 6.03717 16.239 6.00062C16.293 5.96411 16.4861 5.88753 16.6681 5.83043C16.8501 5.7733 17.0907 5.6903 17.2029 5.64597C17.3151 5.6016 17.4507 5.55588 17.5043 5.54431C17.5579 5.53275 17.6802 5.49709 17.7761 5.46506C17.8719 5.43304 17.994 5.39656 18.0473 5.38403C18.1007 5.37149 18.5067 5.25485 18.9496 5.12489C19.3925 4.99494 19.7663 4.8948 19.7803 4.90242C19.7943 4.91004 19.9631 4.86814 20.1554 4.8093C20.3477 4.75046 20.5176 4.70912 20.5328 4.71741C20.5481 4.72572 20.6015 4.71872 20.6515 4.70195C20.7983 4.65258 21.0028 4.60728 21.0248 4.61924C21.0359 4.6253 21.1309 4.60494 21.2357 4.57398C21.3406 4.54302 21.4508 4.53093 21.4806 4.54713C21.5104 4.56331 21.5414 4.56421 21.5496 4.54914C21.5773 4.49821 21.883 4.41147 21.9733 4.42892C22.0227 4.43846 22.0961 4.42451 22.1366 4.39793C22.177 4.37139 22.2267 4.35862 22.2469 4.36962C22.2671 4.38062 22.3572 4.36791 22.4471 4.34137C22.537 4.31483 22.624 4.30043 22.6405 4.30936C22.6569 4.31828 22.7439 4.30388 22.8338 4.27734C22.9237 4.2508 23.0138 4.23809 23.034 4.24909C23.0542 4.26009 23.105 4.24657 23.1469 4.21907C23.1888 4.19157 23.2465 4.1818 23.2751 4.19737C23.3037 4.21293 23.3716 4.20871 23.426 4.18798C23.4803 4.16726 23.5379 4.15743 23.5539 4.16614C23.57 4.17485 23.6376 4.16507 23.7043 4.14439C23.7709 4.12372 23.8858 4.10902 23.9595 4.11179C24.0333 4.11456 24.1468 4.09939 24.2118 4.07817C24.2767 4.05693 24.3484 4.0496 24.371 4.06192C24.3937 4.07424 24.433 4.06662 24.4583 4.04502C24.4836 4.02338 24.5614 4.01171 24.631 4.0191C24.7007 4.02647 24.7653 4.01857 24.7745 4.00154C24.7838 3.98446 24.8157 3.98375 24.8454 3.99991C24.8752 4.01609 24.9216 4.01047 24.9486 3.98744C24.9756 3.96442 25.019 3.95717 25.0451 3.97135C25.0712 3.98553 25.1165 3.98326 25.1458 3.9663C25.1752 3.94935 25.2667 3.94377 25.3493 3.9539C25.4318 3.96404 25.5233 3.95846 25.5527 3.9415C25.582 3.92455 25.6273 3.92227 25.6534 3.93645C25.6795 3.95064 25.7229 3.94339 25.75 3.92037C25.7769 3.89733 25.8233 3.89172 25.8531 3.9079C25.8828 3.92406 25.9147 3.92334 25.924 3.90627C25.9333 3.88923 25.9992 3.88146 26.0706 3.88903C26.1419 3.8966 26.2079 3.88883 26.2172 3.87179C26.2265 3.85472 26.2584 3.854 26.2881 3.87016C26.3179 3.88634 26.3643 3.88072 26.3912 3.85769C26.4183 3.83467 26.463 3.82813 26.4906 3.84316C26.5183 3.8582 26.5621 3.85241 26.588 3.83034C26.6139 3.80827 26.6855 3.80476 26.7471 3.82262C26.846 3.85126 26.9092 3.8473 27.1573 3.79695C27.1902 3.79027 27.2625 3.7965 27.318 3.81078C27.3734 3.82506 27.4381 3.82026 27.4618 3.80005C27.4855 3.77988 27.558 3.77873 27.6228 3.79748C27.6877 3.81628 27.7619 3.81355 27.7878 3.79148C27.8137 3.76941 27.8592 3.76454 27.889 3.78071C27.9187 3.79687 27.9517 3.79422 27.9622 3.77482C27.9727 3.75542 28.0057 3.75277 28.0354 3.76893C28.0652 3.78511 28.1107 3.78023 28.1366 3.75816C28.1625 3.7361 28.2368 3.73337 28.3016 3.75216C28.3665 3.77092 28.4393 3.7694 28.4635 3.74878C28.4877 3.72813 28.5594 3.72626 28.6228 3.74465C28.6862 3.76298 28.746 3.76339 28.7557 3.74554C28.7654 3.72766 28.7977 3.72628 28.8274 3.74244C28.8571 3.75862 28.9019 3.75438 28.9269 3.73309C28.9518 3.7118 29.0535 3.71294 29.1527 3.73568C29.252 3.75841 29.34 3.76444 29.3483 3.7491C29.3567 3.73379 29.4153 3.73625 29.4787 3.75458C29.5421 3.77297 29.6152 3.76989 29.6411 3.74782C29.667 3.72576 29.7125 3.72088 29.7422 3.73706C29.772 3.75322 29.8038 3.75261 29.813 3.73575C29.8222 3.71885 29.912 3.72392 30.0127 3.74698C30.1134 3.77003 30.2031 3.77538 30.212 3.75887C30.221 3.74236 30.2735 3.7405 30.3286 3.75472C30.3838 3.76894 30.4366 3.7664 30.446 3.74911C30.4555 3.73179 30.4845 3.72928 30.5107 3.7435C30.5369 3.75772 30.6105 3.7579 30.6743 3.74384C30.7382 3.72985 30.8423 3.73338 30.9057 3.75176C30.9692 3.77012 31.0283 3.77182 31.0372 3.75549C31.046 3.73916 31.1067 3.74125 31.1718 3.76015C31.237 3.77905 31.2977 3.78115 31.3065 3.76481C31.3154 3.74848 31.376 3.75058 31.4412 3.76948C31.5064 3.78837 31.5674 3.78984 31.5766 3.77276C31.5859 3.75566 31.6674 3.75722 31.7577 3.77619C31.848 3.79517 31.9288 3.79804 31.9372 3.78259C31.9456 3.76714 32.0137 3.77429 32.0886 3.7985C32.1635 3.82271 32.2318 3.82966 32.2403 3.81396C32.2489 3.79826 32.3092 3.80085 32.3744 3.81975C32.4396 3.83865 32.4995 3.84198 32.5076 3.8272C32.5156 3.81242 32.599 3.81646 32.6929 3.83615C32.7868 3.8559 32.8983 3.86182 32.9406 3.84932C32.9829 3.83681 33.0561 3.84759 33.1033 3.87321C33.1504 3.89885 33.1976 3.90395 33.2082 3.88455C33.2187 3.86515 33.2501 3.86162 33.2778 3.8767C33.3055 3.89177 33.3644 3.89344 33.4085 3.88042C33.4526 3.86739 33.5659 3.87872 33.6603 3.9055C33.7546 3.93235 33.8461 3.94101 33.8635 3.92479C33.8809 3.90852 33.959 3.91592 34.0372 3.94117C34.1153 3.96641 34.2123 3.97735 34.2526 3.96545C34.293 3.95353 34.3487 3.95613 34.3764 3.97119C34.4042 3.98628 34.4355 3.98274 34.446 3.96334C34.4566 3.94394 34.4919 3.94258 34.5245 3.96029C34.6105 4.00702 34.8617 4.04012 34.8796 4.00707C34.8881 3.99158 34.9336 3.99986 34.9807 4.0255C35.0279 4.05112 35.0995 4.06235 35.1398 4.05043C35.1801 4.03853 35.2784 4.04987 35.3581 4.07561C35.4378 4.10139 35.5098 4.10985 35.5182 4.0944C35.5266 4.07899 35.6322 4.09294 35.753 4.12538C35.8737 4.15783 35.9793 4.17178 35.9877 4.15636C35.9961 4.14092 36.0642 4.14811 36.1391 4.17232C36.214 4.19653 36.282 4.204 36.2902 4.1889C36.2984 4.17381 36.3663 4.18128 36.4412 4.20549C36.5161 4.2297 36.5839 4.23753 36.5919 4.22289C36.5998 4.20825 36.7124 4.22839 36.8419 4.2677C36.9715 4.30697 37.0851 4.32528 37.0943 4.30834C37.1035 4.29141 37.1804 4.30137 37.2652 4.33047C37.35 4.35957 37.4263 4.37073 37.4347 4.35524C37.4431 4.33972 37.5273 4.35519 37.6218 4.38961C37.7163 4.42402 37.8011 4.4384 37.8103 4.42158C37.8194 4.40479 37.9249 4.41899 38.0447 4.45316C38.1644 4.48733 38.2687 4.50372 38.2764 4.48961C38.2841 4.47549 38.3677 4.4921 38.4622 4.52651C38.5567 4.56092 38.6413 4.57559 38.6503 4.55908C38.6593 4.54257 38.736 4.55288 38.8208 4.58198C38.9056 4.61108 38.9816 4.62266 38.9897 4.60774C38.9979 4.59278 39.1348 4.62496 39.2939 4.67922C39.4531 4.73348 39.59 4.76566 39.5981 4.7507C39.6062 4.73578 39.6823 4.74736 39.7671 4.77646C39.8519 4.80556 39.9283 4.8164 39.9369 4.80052C39.9456 4.78465 40.038 4.80392 40.1423 4.84336C40.2467 4.8828 40.3387 4.90291 40.3467 4.8881C40.3548 4.87324 40.4916 4.90553 40.6508 4.95979C40.81 5.01405 40.9468 5.04633 40.9548 5.03148C40.9629 5.01667 41.0549 5.03678 41.1592 5.07622C41.2636 5.11566 41.3559 5.13503 41.3645 5.11926C41.3731 5.1035 41.4696 5.1246 41.5792 5.16615C41.6887 5.20772 41.7944 5.23278 41.8141 5.22183C41.8338 5.21092 41.9826 5.24948 42.1448 5.30757C42.307 5.36561 42.4462 5.40123 42.4541 5.38673C42.462 5.3722 42.5617 5.39691 42.6758 5.44163C42.7898 5.48635 42.8899 5.51046 42.8982 5.49519C42.9065 5.47992 43.0146 5.5082 43.1385 5.55802C43.2624 5.60785 43.3708 5.63561 43.3794 5.6197C43.388 5.60383 43.5491 5.64832 43.7373 5.71859C43.9255 5.78889 44.0858 5.8348 44.0935 5.82066C44.1011 5.80651 44.2167 5.84004 44.3503 5.89513C44.4838 5.95023 44.6001 5.98256 44.6085 5.96697C44.617 5.95137 44.7332 5.9837 44.8668 6.0388C45.0003 6.0939 45.116 6.12731 45.1237 6.11303C45.1315 6.09878 45.3158 6.15718 45.5334 6.2429C45.7509 6.32861 45.9352 6.38722 45.9428 6.37318C45.9504 6.35918 46.0898 6.40569 46.2525 6.47659C46.4152 6.54752 46.5554 6.59262 46.5639 6.57685C46.5725 6.56105 46.7207 6.61033 46.8932 6.68633C47.0657 6.76229 47.2133 6.81259 47.2212 6.79809C47.2291 6.7836 47.4535 6.86295 47.7199 6.97446C47.9864 7.08596 48.2106 7.1656 48.2183 7.15146C48.226 7.13731 48.3974 7.20074 48.5991 7.29239C48.8008 7.38405 48.9726 7.44681 48.9807 7.43182C48.9889 7.41683 49.1685 7.48387 49.38 7.5808C49.5914 7.67777 49.7709 7.74517 49.7788 7.73064C49.7867 7.7161 50.1145 7.85145 50.5072 8.03139C50.9 8.21129 51.2273 8.34742 51.2347 8.33387C51.242 8.32033 51.5006 8.43154 51.8092 8.58107C52.1179 8.73057 52.3781 8.83871 52.3876 8.82135C52.397 8.804 52.4523 8.81565 52.5105 8.84728L52.6163 8.90478L55.0478 4.45278L57.4794 0.000751823L60.7826 11.1526L64.0859 22.3044L59.2979 23.7162C56.6645 24.4928 54.4663 25.1384 54.413 25.1509C54.3597 25.1635 54.2377 25.2 54.1418 25.2321C54.046 25.2641 53.9234 25.3003 53.8694 25.3125C53.8155 25.3247 53.6929 25.3609 53.597 25.3929C53.5012 25.4249 53.3786 25.4611 53.3246 25.4733C53.2707 25.4855 53.1481 25.5217 53.0522 25.5537C52.9564 25.5857 52.8338 25.6219 52.7798 25.6341C52.7259 25.6463 52.6033 25.6825 52.5074 25.7145C52.4116 25.7466 52.289 25.7828 52.235 25.795C52.1811 25.8072 52.0585 25.8433 51.9626 25.8754C51.8668 25.9074 51.7442 25.9436 51.6902 25.9558C51.6363 25.968 51.5137 26.0042 51.4178 26.0362C51.322 26.0682 51.1994 26.1044 51.1454 26.1166C51.0915 26.1288 50.9689 26.165 50.873 26.197C50.7772 26.2291 50.6546 26.2653 50.6006 26.2775C50.5466 26.2897 50.4241 26.3258 50.3282 26.3579C50.2324 26.3899 50.1098 26.4261 50.0558 26.4383C50.0018 26.4505 49.8793 26.4867 49.7834 26.5187C49.6876 26.5507 49.565 26.5869 49.511 26.5991C49.457 26.6113 49.3345 26.6475 49.2386 26.6795C49.1428 26.7116 49.0202 26.7477 48.9662 26.7599C48.9122 26.7721 48.7897 26.8083 48.6938 26.8404C48.598 26.8724 48.4754 26.9086 48.4214 26.9208C48.3674 26.933 48.2449 26.9692 48.149 27.0012C48.0532 27.0332 47.9306 27.0694 47.8766 27.0816C47.8226 27.0938 47.7001 27.13 47.6042 27.162C47.5084 27.194 47.3858 27.2302 47.3318 27.2424C47.2778 27.2546 47.1553 27.2908 47.0594 27.3228C46.9636 27.3549 46.841 27.3911 46.787 27.4033C46.733 27.4155 46.6104 27.4517 46.5146 27.4837C46.4188 27.5157 46.2962 27.5519 46.2422 27.5641C46.1882 27.5763 46.0656 27.6125 45.9698 27.6445C45.8739 27.6765 45.7514 27.7127 45.6974 27.7249C45.6434 27.7371 45.5208 27.7733 45.425 27.8053C45.3291 27.8374 45.2066 27.8736 45.1526 27.8858C45.0986 27.898 44.976 27.9341 44.8802 27.9662C44.7843 27.9982 44.6618 28.0344 44.6078 28.0466C44.5538 28.0588 44.4312 28.095 44.3354 28.127C44.2395 28.159 44.117 28.1952 44.063 28.2074C44.009 28.2196 43.8864 28.2558 43.7906 28.2878C43.6947 28.3199 43.5722 28.356 43.5182 28.3682C43.4642 28.3804 43.3416 28.4166 43.2458 28.4487C43.1499 28.4807 43.0274 28.5169 42.9734 28.5291C42.9194 28.5413 42.7968 28.5775 42.701 28.6095C42.6051 28.6415 42.4826 28.6777 42.4286 28.6899C42.3746 28.7021 42.252 28.7383 42.1562 28.7703C42.0603 28.8023 41.933 28.8378 41.8733 28.849L41.7646 28.8695L44.2284 24.3369L46.6921 19.8044L46.2117 19.5732C45.9475 19.4461 45.7171 19.3493 45.6997 19.3582C45.6823 19.3671 45.4512 19.2715 45.1862 19.1459C44.9212 19.0201 44.6983 18.9286 44.6908 18.9423C44.6833 18.9561 44.38 18.8326 44.0167 18.6679C43.6534 18.5032 43.3495 18.3807 43.3414 18.3956C43.3333 18.4104 43.1617 18.3476 42.9599 18.2559C42.7582 18.1643 42.5862 18.1019 42.5778 18.1175C42.5694 18.133 42.4054 18.0749 42.2134 17.9884C42.0215 17.902 41.8579 17.8431 41.8501 17.8575C41.8423 17.8719 41.6262 17.796 41.3701 17.6888C41.1139 17.5816 40.8975 17.5065 40.8891 17.5219C40.8807 17.5373 40.7407 17.4919 40.578 17.4209C40.4153 17.35 40.2759 17.3035 40.2683 17.3175C40.2607 17.3316 40.0765 17.273 39.8589 17.1872C39.6414 17.1015 39.4571 17.0429 39.4495 17.0569C39.4419 17.071 39.3144 17.0312 39.1662 16.9686C39.018 16.906 38.88 16.8644 38.8595 16.8761C38.8389 16.8878 38.7181 16.8542 38.591 16.8014C38.4639 16.7486 38.3533 16.7176 38.3452 16.7325C38.337 16.7474 38.1768 16.7015 37.9891 16.6303C37.8013 16.5592 37.6412 16.513 37.6332 16.5278C37.6251 16.5425 37.5173 16.5138 37.3934 16.464C37.2695 16.4142 37.161 16.3866 37.1523 16.4027C37.1435 16.4188 37.0431 16.3954 36.929 16.3506C36.815 16.3059 36.7154 16.2808 36.7078 16.2949C36.7002 16.3089 36.5474 16.268 36.3685 16.2039C36.1895 16.1398 36.0369 16.0987 36.0294 16.1125C36.0219 16.1262 35.9306 16.1049 35.8265 16.065C35.7224 16.025 35.6301 16.0057 35.6212 16.0219C35.6124 16.0381 35.52 16.0188 35.4159 15.9789C35.3118 15.9389 35.2199 15.9188 35.2115 15.9341C35.2032 15.9494 35.0576 15.9144 34.888 15.8562C34.7184 15.798 34.5733 15.762 34.5655 15.7763C34.5578 15.7906 34.482 15.7784 34.3972 15.7493C34.3124 15.7202 34.2363 15.7088 34.228 15.724C34.2198 15.7392 34.1279 15.719 34.0238 15.6791C33.9197 15.6392 33.8278 15.619 33.8195 15.6341C33.8113 15.6493 33.6901 15.6261 33.5503 15.5825C33.4104 15.539 33.2894 15.5154 33.2814 15.5302C33.2734 15.5449 33.1948 15.5295 33.1067 15.4959C33.0186 15.4622 32.932 15.4482 32.9143 15.4647C32.8967 15.4812 32.7983 15.4626 32.6958 15.4233C32.5932 15.384 32.5025 15.3645 32.494 15.38C32.4856 15.3955 32.3807 15.3802 32.2609 15.3461C32.1411 15.3119 32.0368 15.2955 32.0292 15.3096C32.0215 15.3237 31.9379 15.3071 31.8434 15.2727C31.7489 15.2383 31.6643 15.2236 31.6553 15.2401C31.6463 15.2567 31.5696 15.2463 31.4848 15.2172C31.4 15.1881 31.3232 15.178 31.3141 15.1947C31.305 15.2115 31.192 15.1921 31.0631 15.1516C30.9341 15.1112 30.8215 15.0912 30.8128 15.1072C30.8041 15.1232 30.7357 15.1165 30.6608 15.0923C30.5859 15.0681 30.518 15.0606 30.5098 15.0757C30.5015 15.0908 30.4336 15.0833 30.3587 15.0591C30.2838 15.0349 30.2154 15.0283 30.2066 15.0443C30.1979 15.0605 30.0839 15.0429 29.9533 15.0054C29.8228 14.9679 29.7101 14.9481 29.7029 14.9613C29.6957 14.9745 29.6285 14.9656 29.5536 14.9414C29.4788 14.9172 29.4102 14.9108 29.4013 14.9271C29.3924 14.9435 29.3239 14.9371 29.249 14.9129C29.1741 14.8887 29.1054 14.8824 29.0964 14.899C29.0874 14.9156 28.9902 14.905 28.8805 14.8755C28.7708 14.846 28.6742 14.8344 28.6658 14.8497C28.6575 14.865 28.5894 14.8577 28.5146 14.8335C28.4397 14.8093 28.3708 14.8034 28.3616 14.8204C28.3524 14.8374 28.2915 14.8358 28.2263 14.8169C28.1611 14.798 28.1014 14.7942 28.0937 14.8084C28.086 14.8226 27.9892 14.8114 27.8786 14.7834C27.768 14.7555 27.67 14.7464 27.6609 14.7631C27.6518 14.7798 27.5831 14.7737 27.5082 14.7495C27.4333 14.7253 27.3653 14.7179 27.3571 14.7331C27.3489 14.7482 27.2948 14.7484 27.237 14.7335C27.1792 14.7186 27.0972 14.7166 27.055 14.7291C27.0127 14.7416 26.9134 14.7309 26.8344 14.7053C26.7554 14.6798 26.6577 14.6687 26.6174 14.6806C26.5771 14.6925 26.5213 14.6899 26.4936 14.6748C26.4659 14.6597 26.4352 14.662 26.4255 14.6799C26.4158 14.6977 26.3545 14.6969 26.2893 14.678C26.2241 14.6591 26.1639 14.6562 26.1556 14.6715C26.1473 14.6869 26.0581 14.6806 25.9574 14.6575C25.8567 14.6345 25.767 14.6291 25.758 14.6456C25.7491 14.6621 25.6966 14.664 25.6414 14.6498C25.5863 14.6356 25.5341 14.6368 25.5256 14.6526C25.517 14.6684 25.4566 14.6658 25.3914 14.6469C25.3262 14.628 25.2661 14.6252 25.2577 14.6405C25.2494 14.6558 25.1602 14.6495 25.0595 14.6265C24.9589 14.6034 24.8692 14.598 24.8602 14.6146C24.8512 14.6311 24.7987 14.6329 24.7436 14.6187C24.6884 14.6045 24.6363 14.6058 24.6277 14.6215C24.6191 14.6373 24.5588 14.6347 24.4936 14.6158C24.4284 14.5969 24.3682 14.5941 24.3599 14.6094C24.3515 14.6247 24.2635 14.6187 24.1643 14.596C24.065 14.5732 23.9634 14.5721 23.9384 14.5934C23.9134 14.6147 23.8687 14.6189 23.8389 14.6027C23.8092 14.5866 23.7769 14.5879 23.7672 14.6058C23.7575 14.6237 23.6962 14.6229 23.631 14.604C23.5658 14.5851 23.5051 14.5832 23.496 14.5998C23.487 14.6164 23.4131 14.6199 23.3318 14.6075C23.2505 14.5951 23.178 14.5959 23.1707 14.6093C23.1634 14.6227 23.1123 14.6221 23.0572 14.6078C23.002 14.5936 22.9484 14.5976 22.9381 14.6166C22.9277 14.6356 22.8966 14.6389 22.8688 14.6238C22.8411 14.6087 22.7862 14.6055 22.7469 14.6166C22.7077 14.6277 22.6124 14.6299 22.5353 14.6213C22.4581 14.6128 22.3884 14.618 22.3803 14.633C22.3722 14.648 22.3182 14.648 22.2604 14.6331C22.2026 14.6182 22.1235 14.6134 22.0848 14.6225C21.9071 14.6642 21.8586 14.667 21.7586 14.6412C21.6997 14.626 21.6314 14.6309 21.6067 14.6519C21.5821 14.673 21.5392 14.6779 21.5116 14.6629C21.4839 14.6478 21.4401 14.6536 21.4142 14.6757C21.3883 14.6978 21.3153 14.7008 21.2519 14.6825C21.1885 14.6641 21.1282 14.6646 21.118 14.6834C21.1077 14.7023 21.0426 14.7084 20.9733 14.697C20.9041 14.6856 20.8396 14.6907 20.8301 14.7082C20.8206 14.7257 20.7914 14.7284 20.7652 14.7141C20.7391 14.6999 20.6638 14.7001 20.5979 14.7146C20.532 14.7291 20.4567 14.7292 20.4306 14.715C20.4044 14.7008 20.3742 14.7054 20.3634 14.7253C20.3526 14.7452 20.2958 14.755 20.2372 14.747C20.1787 14.7391 20.1228 14.7471 20.1132 14.7649C20.1035 14.7827 20.0505 14.7856 19.9953 14.7714C19.9401 14.7572 19.8865 14.7611 19.8762 14.7801C19.8658 14.7992 19.8343 14.8022 19.8062 14.7869C19.778 14.7716 19.7315 14.772 19.7027 14.7879C19.674 14.8037 19.5899 14.8146 19.5159 14.812C19.374 14.807 19.3543 14.8089 19.1583 14.8469C19.0907 14.8599 19.022 14.8633 19.0056 14.8544C18.9891 14.8454 18.9307 14.8496 18.8757 14.8637C18.7216 14.9032 18.5475 14.9253 18.5177 14.9091C18.5029 14.901 18.4182 14.915 18.3296 14.9401C18.2409 14.9651 18.1291 14.9781 18.0813 14.9689C18.0334 14.9596 17.918 14.9712 17.8249 14.9946C17.7317 15.0179 17.62 15.0454 17.5767 15.0557C17.5334 15.0659 17.4579 15.0663 17.409 15.0564C17.3602 15.0465 17.2986 15.0568 17.2723 15.0792C17.246 15.1017 17.2037 15.1096 17.1784 15.0969C17.1531 15.0842 17.0678 15.0996 16.989 15.1311C16.9102 15.1626 16.8246 15.1769 16.7988 15.1629C16.773 15.1488 16.7304 15.1557 16.7041 15.1782C16.6778 15.2006 16.6169 15.2114 16.5687 15.2021C16.5206 15.1928 16.4165 15.2089 16.3374 15.238C16.2583 15.2671 16.1789 15.2828 16.1609 15.2731C16.1429 15.2633 16.0489 15.279 15.9518 15.3079C15.8548 15.3369 15.7135 15.368 15.6377 15.3771C15.562 15.3862 15.4606 15.4082 15.4125 15.4261C15.3644 15.4438 15.313 15.452 15.2985 15.444C15.2839 15.4361 15.1616 15.4622 15.0268 15.502C14.8919 15.5418 14.7709 15.5685 14.7577 15.5614C14.7446 15.5543 14.6538 15.5718 14.5559 15.6002C14.2783 15.6809 14.1195 15.7171 14.0966 15.7047C14.0851 15.6984 13.7949 15.7772 13.4518 15.8797C13.1086 15.9822 12.8187 16.0611 12.8074 16.055C12.7725 16.036 12.5798 16.0865 12.562 16.1193C12.5527 16.1364 12.1783 16.2572 11.73 16.3877C11.2818 16.5182 10.9067 16.6402 10.8966 16.6588C10.876 16.6966 10.4977 16.8101 10.4602 16.7897C10.4471 16.7826 10.3901 16.8082 10.3338 16.8467C10.2773 16.8851 10.1452 16.9418 10.04 16.9726C9.93477 17.0034 9.80447 17.0588 9.75036 17.0957C9.69625 17.1327 9.60299 17.1625 9.5431 17.1622C9.48319 17.1617 9.42407 17.18 9.41171 17.2028C9.38935 17.2439 9.29609 17.2855 8.94383 17.4114C8.84237 17.4477 8.74967 17.4951 8.73787 17.5168C8.72606 17.5386 8.67385 17.5589 8.62184 17.562C8.56983 17.5651 8.51756 17.5856 8.50567 17.6074C8.49378 17.6293 8.42436 17.6624 8.35137 17.681C8.27839 17.6995 8.20938 17.7318 8.19799 17.7528C8.18662 17.7737 8.14924 17.7871 8.11493 17.7826C8.08063 17.778 8.02338 17.8028 7.98771 17.8376C7.95207 17.8725 7.88764 17.9127 7.84456 17.927C7.67733 17.9824 7.5343 18.0482 7.51877 18.0767C7.50983 18.0932 7.45847 18.1214 7.40468 18.1394C7.23159 18.1974 7.0948 18.2677 7.07139 18.3108C7.05883 18.3339 7.01978 18.3489 6.98457 18.3443C6.94938 18.3396 6.90738 18.3601 6.89121 18.3898C6.87507 18.4195 6.84516 18.4347 6.82472 18.4236C6.80427 18.4125 6.74506 18.442 6.69312 18.4892C6.64118 18.5364 6.58434 18.5671 6.56682 18.5576C6.54931 18.5481 6.52336 18.5617 6.50915 18.5878C6.49494 18.614 6.43164 18.6547 6.36849 18.6783C6.30535 18.7019 6.24297 18.7409 6.22989 18.765C6.21682 18.7891 6.17911 18.8052 6.14614 18.8008C6.11315 18.7964 6.05002 18.8346 6.00581 18.8855C5.96163 18.9365 5.89783 18.9745 5.86408 18.9701C5.83032 18.9656 5.78948 18.9862 5.77331 19.016C5.75717 19.0457 5.72807 19.0613 5.70865 19.0508C5.68923 19.0402 5.66013 19.0559 5.64399 19.0856C5.62782 19.1153 5.58698 19.1359 5.55322 19.1315C5.51947 19.127 5.4575 19.1629 5.41554 19.2114C5.37353 19.2598 5.28913 19.3181 5.2279 19.3411C5.16667 19.3639 5.10497 19.4041 5.09076 19.4302C5.07656 19.4563 5.05032 19.4698 5.03242 19.46C5.01456 19.4503 4.96461 19.4831 4.9214 19.533C4.87819 19.5828 4.81706 19.6201 4.78549 19.616C4.75395 19.6118 4.69095 19.6512 4.64554 19.7036C4.60008 19.756 4.54957 19.7916 4.53323 19.7828C4.51688 19.7739 4.46716 19.8085 4.42275 19.8598C4.37833 19.9111 4.32861 19.9457 4.31227 19.9368C4.29592 19.9279 4.2462 19.9626 4.20178 20.0139C4.15737 20.0651 4.10701 20.0994 4.08993 20.0902C4.0728 20.0808 4.00528 20.1264 3.93983 20.1914C3.87438 20.2563 3.80869 20.3029 3.7939 20.2948C3.7791 20.2868 3.73062 20.3221 3.68621 20.3734C3.64179 20.4246 3.59151 20.459 3.57453 20.4498C3.55751 20.4405 3.50298 20.4828 3.45333 20.5438C3.40367 20.6048 3.35098 20.6481 3.33626 20.6401C3.3215 20.6321 3.25062 20.6861 3.1787 20.7601C3.10677 20.8341 3.03589 20.8881 3.02113 20.8801C3.00641 20.8721 2.95372 20.9154 2.90406 20.9764C2.85441 21.0374 2.79932 21.0794 2.78166 21.0698C2.76401 21.0602 2.70892 21.1022 2.65927 21.1632C2.60961 21.2242 2.55643 21.2672 2.54111 21.2589C2.52582 21.2506 2.45108 21.3128 2.37505 21.3971C2.29902 21.4815 2.22392 21.5435 2.20814 21.5349C2.19236 21.5263 2.13423 21.577 2.07891 21.6474C2.02359 21.7179 1.96405 21.7678 1.94657 21.7583C1.9291 21.7488 1.87012 21.799 1.81551 21.8698C1.7609 21.9407 1.70453 21.9923 1.69026 21.9845C1.67597 21.9768 1.59228 22.0547 1.50429 22.1576C1.4163 22.2606 1.33237 22.3384 1.31782 22.3305C1.30328 22.3225 1.24178 22.3817 1.18123 22.4618C1.12068 22.542 1.05622 22.5995 1.038 22.5896C1.01975 22.5797 0.985231 22.6072 0.961212 22.6507C0.900604 22.7606 0.793941 22.8682 0.762553 22.8512C0.748148 22.8433 0.780695 22.7068 0.83486 22.5477Z" fill="white"/>
</svg>
